<svg xmlns="http://www.w3.org/2000/svg" viewBox="0 0 199.25 45.2"><title>Asset 1</title><g id="Layer_2" data-name="Layer 2"><g id="Layer_1-2" data-name="Layer 1"><path d="M0,29.4v-.05A9.15,9.15,0,0,1,9.32,20a9.48,9.48,0,0,1,6.2,2,1.59,1.59,0,0,1,.62,1.27,1.59,1.59,0,0,1-2.53,1.24A6.55,6.55,0,0,0,9.3,22.92a6.08,6.08,0,0,0-6,6.38v.05a6.09,6.09,0,0,0,6,6.41A6.48,6.48,0,0,0,13.82,34a1.44,1.44,0,0,1,1-.36,1.51,1.51,0,0,1,1.5,1.47,1.53,1.53,0,0,1-.52,1.14A9.24,9.24,0,0,1,9.2,38.7,9.09,9.09,0,0,1,0,29.4Z"/><path d="M25.2,21.75a1.59,1.59,0,0,1,3.18,0V36.94a1.59,1.59,0,0,1-3.18,0Z"/><path d="M38.37,21.91a1.58,1.58,0,0,1,1.6-1.6h6.46a7.28,7.28,0,0,1,5.22,1.81,5.47,5.47,0,0,1,1.5,3.9v.05A5.35,5.35,0,0,1,49,31.46l3.46,4.37A1.85,1.85,0,0,1,53,37a1.5,1.5,0,0,1-1.52,1.47,1.82,1.82,0,0,1-1.55-.83l-4.39-5.6h-4v4.86a1.59,1.59,0,0,1-3.18,0Zm7.83,7.36c2.27,0,3.72-1.19,3.72-3v-.05c0-1.94-1.4-3-3.75-3H41.55v6.07Z"/><path d="M62.21,21.91a1.58,1.58,0,0,1,1.6-1.6h6.46a7.28,7.28,0,0,1,5.22,1.81A5.47,5.47,0,0,1,77,26v.05a5.35,5.35,0,0,1-4.11,5.4l3.46,4.37A1.85,1.85,0,0,1,76.85,37a1.5,1.5,0,0,1-1.52,1.47,1.81,1.81,0,0,1-1.55-.83l-4.39-5.6h-4v4.86a1.59,1.59,0,0,1-3.18,0ZM70,29.27c2.27,0,3.72-1.19,3.72-3v-.05c0-1.94-1.39-3-3.75-3H65.39v6.07Z"/><path d="M85.76,30.72v-9a1.59,1.59,0,0,1,3.18,0v8.83c0,3.36,1.73,5.14,4.57,5.14s4.55-1.68,4.55-5v-9a1.59,1.59,0,0,1,3.18,0v8.81c0,5.4-3,8.11-7.77,8.11S85.76,36,85.76,30.72Z"/><path d="M110.29,36.37a1.48,1.48,0,0,1,.88-2.69,1.47,1.47,0,0,1,.93.28,7.84,7.84,0,0,0,5.06,1.86c2,0,3.2-.93,3.2-2.27v-.05c0-1.29-.72-2-4.08-2.77-3.85-.93-6-2.06-6-5.4v-.05c0-3.1,2.58-5.24,6.17-5.24a10,10,0,0,1,5.73,1.68,1.44,1.44,0,0,1,.7,1.27,1.48,1.48,0,0,1-1.5,1.47,1.54,1.54,0,0,1-.83-.23,7.51,7.51,0,0,0-4.16-1.37c-1.86,0-2.94,1-2.94,2.14v.05c0,1.39.83,2,4.31,2.84,3.82.93,5.79,2.3,5.79,5.29v.05c0,3.38-2.66,5.4-6.46,5.4A11.25,11.25,0,0,1,110.29,36.37Z"/><path d="M182.92,12.54a9.2,9.2,0,0,1-1.5-.1C181.42,5.58,174.93,0,168.06,0s-13.35,5.58-13.35,12.45h-3.65a17.83,17.83,0,0,1,1.14-6.22,9.1,9.1,0,0,0-10.84,9,9.25,9.25,0,0,0,.28,2.2l.56,2.22-2.09.93a12.86,12.86,0,0,0,5.21,24.62h37.6a16.33,16.33,0,0,0,0-32.66ZM166.63,36.4a2.14,2.14,0,1,1-4.28,0V26.64l-3.78,5.82a2,2,0,0,1-3.58,0l-3.72-5.73v9.73a2.1,2.1,0,0,1-2.13,2.1,2.08,2.08,0,0,1-2.1-2.1V20.85a2.14,2.14,0,0,1,2.15-2.15h.48a2.21,2.21,0,0,1,2,1.12l5.2,8.48,5.23-8.5A2.11,2.11,0,0,1,164,18.69h.48a2.14,2.14,0,0,1,2.15,2.15Zm23.44-7.8c0,5.51-4.25,9.79-10.41,9.79h-5.48A2.14,2.14,0,0,1,172,36.23V21a2.14,2.14,0,0,1,2.15-2.15h5.48c6.15,0,10.41,4.22,10.41,9.73Z"/><path d="M179.67,22.37h-3.55V34.63h3.55a5.79,5.79,0,0,0,6.13-6.13A5.86,5.86,0,0,0,179.67,22.37Z"/></g></g></svg>